<?xml version="1.0" standalone="no"?><svg xmlns:xlink="http://www.w3.org/1999/xlink" xmlns="http://www.w3.org/2000/svg" viewBox="0 0 2000 1142.8437272392732" preserveAspectRatio="xMaxYMax slice"><g transform="scale(2.1839377927159123)"><rect x="0" y="0" width="915.7907499999999" height="523.309" fill="#121212"/><rect x="0" y="0" width="65.41" height="65.41" fill="#121214"/><rect x="0" y="0" width="65.41" height="65.41" fill="#e4315c"/><rect x="65.41" y="0" width="65.41" height="65.41" fill="#1737bc"/><rect x="65.41" y="0" width="65.41" height="65.41" fill="#183cd3"/><rect x="130.83" y="0" width="65.41" height="65.41" fill="#ae2949"/><path d="M 130.83 65.41 A 65.41 65.41 0 0 1  196.24 0 L 130.83 65.41 A 65.41 65.41 0 0 0 196.24 0" fill="#183cd4"/><rect x="196.24" y="0" width="65.41" height="65.41" fill="#14225d"/><polygon points="261.65,0 261.65,65.41 196.24,65.41" fill="#a92847"/><rect x="261.65" y="0" width="65.41" height="65.41" fill="#772135"/><path d="M 261.65 65.41 A 65.41 65.41 0 0 0 327.05999999999995 0 L 261.65 0" fill="#8b243c"/><rect x="327.07" y="0" width="65.41" height="65.41" fill="#1739c7"/><polygon points="327.07,0 392.48,0 392.48,65.41" fill="#fc3564"/><rect x="392.48" y="0" width="65.41" height="65.41" fill="#152b84"/><path d="M 392.48 0 A 65.41 65.41 0 0 1  457.89 65.41 L 392.48 0 A 65.41 65.41 0 0 0 457.89 65.41" fill="#b82b4c"/><rect x="457.9" y="0" width="65.41" height="65.41" fill="#e1315b"/><polygon points="457.9,0 523.31,0 523.31,65.41" fill="#162e95"/><rect x="523.31" y="0" width="65.41" height="65.41" fill="#601d2d"/><polygon points="588.7199999999999,0 588.7199999999999,65.41 523.31,65.41" fill="#141e49"/><rect x="588.72" y="0" width="65.41" height="65.41" fill="#121623"/><polygon points="588.72,0 654.13,0 654.13,65.41" fill="#142156"/><rect x="654.14" y="0" width="65.41" height="65.41" fill="#1738c2"/><rect x="654.14" y="0" width="65.41" height="65.41" fill="#131c3f"/><rect x="719.55" y="0" width="65.41" height="65.41" fill="#29151a"/><polygon points="719.55,0 784.9599999999999,65.41 719.55,65.41" fill="#152569"/><rect x="784.96" y="0" width="65.41" height="65.41" fill="#962540"/><rect x="784.96" y="0" width="65.41" height="65.41" fill="#411922"/><rect x="850.38" y="0" width="65.41" height="65.41" fill="#162e93"/><path d="M 850.38 0 A 65.41 65.41 0 0 1  915.79 65.41 L 850.38 0 A 65.41 65.41 0 0 0 915.79 65.41" fill="#121212"/><rect x="0" y="65.41" width="65.41" height="65.41" fill="#1739c5"/><polygon points="0,65.41 65.41,130.82 0,130.82" fill="#142156"/><rect x="65.41" y="65.41" width="65.41" height="65.41" fill="#251519"/><path d="M 65.41 130.82 A 65.41 65.41 0 0 0 130.82 65.41 L 65.41 65.41" fill="#1735b1"/><rect x="130.83" y="65.41" width="65.41" height="65.41" fill="#91253f"/><rect x="130.83" y="65.41" width="65.41" height="65.41" fill="#131934"/><rect x="196.24" y="65.41" width="65.41" height="65.41" fill="#1c1315"/><polygon points="196.24,65.41 261.65,130.82 196.24,130.82" fill="#13182c"/><rect x="261.65" y="65.41" width="65.41" height="65.41" fill="#b12a4a"/><polygon points="261.65,65.41 327.05999999999995,130.82 261.65,130.82" fill="#1737bc"/><rect x="327.07" y="65.41" width="65.41" height="65.41" fill="#b02949"/><polygon points="327.07,65.41 392.48,130.82 327.07,130.82" fill="#782136"/><rect x="392.48" y="65.41" width="65.41" height="65.41" fill="#fd3564"/><rect x="392.48" y="65.41" width="65.41" height="65.41" fill="#f03360"/><rect x="457.9" y="65.41" width="65.41" height="65.41" fill="#5d1d2c"/><rect x="457.9" y="65.41" width="65.41" height="65.41" fill="#201417"/><rect x="523.31" y="65.41" width="65.41" height="65.41" fill="#131727"/><rect x="523.31" y="65.41" width="65.41" height="65.41" fill="#2e161c"/><rect x="588.72" y="65.41" width="65.41" height="65.41" fill="#16309e"/><polygon points="588.72,65.41 654.13,130.82 588.72,130.82" fill="#1738bf"/><rect x="654.14" y="65.41" width="65.41" height="65.41" fill="#131728"/><polygon points="719.55,65.41 719.55,130.82 654.14,130.82" fill="#752135"/><rect x="719.55" y="65.41" width="65.41" height="65.41" fill="#b42a4b"/><path d="M 719.55 130.82 A 65.41 65.41 0 0 0 784.9599999999999 65.41 L 719.55 65.41" fill="#152775"/><rect x="784.96" y="65.41" width="65.41" height="65.41" fill="#121316"/><rect x="784.96" y="65.41" width="65.41" height="65.41" fill="#6b1f31"/><rect x="850.38" y="65.41" width="65.41" height="65.41" fill="#121522"/><path d="M 850.38 130.82 A 65.41 65.41 0 0 1  915.79 65.41 L 915.79 130.82" fill="#1a1315"/><rect x="0" y="130.83" width="65.41" height="65.41" fill="#ee335f"/><rect x="0" y="130.83" width="65.41" height="65.41" fill="#772135"/><rect x="65.41" y="130.83" width="65.41" height="65.41" fill="#cb2d53"/><path d="M 65.41 196.24 A 65.41 65.41 0 0 0 130.82 130.83 L 65.41 130.83" fill="#141213"/><rect x="130.83" y="130.83" width="65.41" height="65.41" fill="#152770"/><path d="M 130.83 130.83 A 65.41 65.41 0 0 1 196.24 196.24 L 130.83 196.24" fill="#a42845"/><rect x="196.24" y="130.83" width="65.41" height="65.41" fill="#141e4b"/><polygon points="196.24,130.83 261.65,130.83 261.65,196.24" fill="#1736b7"/><rect x="261.65" y="130.83" width="65.41" height="65.41" fill="#251519"/><polygon points="261.65,130.83 327.05999999999995,196.24 261.65,196.24" fill="#1735b2"/><rect x="327.07" y="130.83" width="65.41" height="65.41" fill="#ae2949"/><rect x="327.07" y="130.83" width="65.41" height="65.41" fill="#b72a4c"/><rect x="392.48" y="130.83" width="65.41" height="65.41" fill="#162f97"/><rect x="392.48" y="130.83" width="65.41" height="65.41" fill="#972641"/><rect x="457.9" y="130.83" width="65.41" height="65.41" fill="#28151a"/><polygon points="457.9,130.83 523.31,130.83 457.9,196.24" fill="#131931"/><rect x="523.31" y="130.83" width="65.41" height="65.41" fill="#1632a6"/><rect x="523.31" y="130.83" width="65.41" height="65.41" fill="#ba2b4d"/><rect x="588.72" y="130.83" width="65.41" height="65.41" fill="#141213"/><path d="M 588.72 196.24 A 65.41 65.41 0 0 0 654.13 130.83 L 588.72 130.83" fill="#f03360"/><rect x="654.14" y="130.83" width="65.41" height="65.41" fill="#152b84"/><rect x="654.14" y="130.83" width="65.41" height="65.41" fill="#742034"/><rect x="719.55" y="130.83" width="65.41" height="65.41" fill="#121521"/><path d="M 719.55 130.83 A 65.41 65.41 0 0 1 784.9599999999999 196.24 L 719.55 196.24" fill="#131a37"/><rect x="784.96" y="130.83" width="65.41" height="65.41" fill="#f23361"/><polygon points="784.96,130.83 850.37,196.24 784.96,196.24" fill="#5f1d2d"/><rect x="850.38" y="130.83" width="65.41" height="65.41" fill="#1631a0"/><rect x="850.38" y="130.83" width="65.41" height="65.41" fill="#fa3463"/><rect x="0" y="196.24" width="65.41" height="65.41" fill="#fe3565"/><rect x="0" y="196.24" width="65.41" height="65.41" fill="#5c1d2c"/><rect x="65.41" y="196.24" width="65.41" height="65.41" fill="#d02e55"/><rect x="65.41" y="196.24" width="65.41" height="65.41" fill="#183fe0"/><rect x="130.83" y="196.24" width="65.41" height="65.41" fill="#261519"/><rect x="130.83" y="196.24" width="65.41" height="65.41" fill="#121319"/><rect x="196.24" y="196.24" width="65.41" height="65.41" fill="#1737be"/><rect x="196.24" y="196.24" width="65.41" height="65.41" fill="#131933"/><rect x="261.65" y="196.24" width="65.41" height="65.41" fill="#141f4f"/><polygon points="327.05999999999995,196.24 327.05999999999995,261.65 261.65,261.65" fill="#183dd8"/><rect x="327.07" y="196.24" width="65.41" height="65.41" fill="#90253e"/><rect x="327.07" y="196.24" width="65.41" height="65.41" fill="#161313"/><rect x="392.48" y="196.24" width="65.41" height="65.41" fill="#173aca"/><path d="M 392.48 196.24 A 65.41 65.41 0 0 1 457.89 261.65 L 392.48 261.65" fill="#142051"/><rect x="457.9" y="196.24" width="65.41" height="65.41" fill="#d32e56"/><path d="M 457.9 196.24 A 65.41 65.41 0 0 0 523.31 261.65 L 523.31 196.24" fill="#a92847"/><rect x="523.31" y="196.24" width="65.41" height="65.41" fill="#162f97"/><rect x="523.31" y="196.24" width="65.41" height="65.41" fill="#141f4d"/><rect x="588.72" y="196.24" width="65.41" height="65.41" fill="#131626"/><polygon points="588.72,196.24 654.13,196.24 654.13,261.65" fill="#131931"/><rect x="654.14" y="196.24" width="65.41" height="65.41" fill="#b22a4a"/><polygon points="654.14,196.24 719.55,196.24 654.14,261.65" fill="#ad2948"/><rect x="719.55" y="196.24" width="65.41" height="65.41" fill="#1737bd"/><polygon points="719.55,196.24 784.9599999999999,261.65 719.55,261.65" fill="#6c1f32"/><rect x="784.96" y="196.24" width="65.41" height="65.41" fill="#131a36"/><path d="M 784.96 196.24 A 65.41 65.41 0 0 0 850.37 261.65 L 850.37 196.24" fill="#571c2a"/><rect x="850.38" y="196.24" width="65.41" height="65.41" fill="#471a25"/><rect x="850.38" y="196.24" width="65.41" height="65.41" fill="#b92b4d"/><rect x="0" y="261.65" width="65.41" height="65.41" fill="#742034"/><polygon points="0,261.65 65.41,261.65 0,327.05999999999995" fill="#6a1f31"/><rect x="65.41" y="261.65" width="65.41" height="65.41" fill="#661e2f"/><path d="M 65.41 261.65 A 65.41 65.41 0 0 1 130.82 327.05999999999995 L 65.41 327.05999999999995" fill="#162f99"/><rect x="130.83" y="261.65" width="65.41" height="65.41" fill="#12151e"/><rect x="130.83" y="261.65" width="65.41" height="65.41" fill="#152b84"/><rect x="196.24" y="261.65" width="65.41" height="65.41" fill="#32171d"/><rect x="196.24" y="261.65" width="65.41" height="65.41" fill="#5e1d2d"/><rect x="261.65" y="261.65" width="65.41" height="65.41" fill="#451a24"/><path d="M 261.65 327.05999999999995 A 65.41 65.41 0 0 1  327.05999999999995 261.65 L 327.05999999999995 327.05999999999995" fill="#1633a9"/><rect x="327.07" y="261.65" width="65.41" height="65.41" fill="#162d90"/><polygon points="327.07,261.65 392.48,327.05999999999995 327.07,327.05999999999995" fill="#131933"/><rect x="392.48" y="261.65" width="65.41" height="65.41" fill="#162e95"/><path d="M 392.48 327.05999999999995 A 65.41 65.41 0 0 1  457.89 261.65 L 392.48 327.05999999999995 A 65.41 65.41 0 0 0 457.89 261.65" fill="#2d161b"/><rect x="457.9" y="261.65" width="65.41" height="65.41" fill="#a42845"/><path d="M 457.9 261.65 A 65.41 65.41 0 0 1  523.31 327.05999999999995 L 457.9 261.65 A 65.41 65.41 0 0 0 523.31 327.05999999999995" fill="#29151a"/><rect x="523.31" y="261.65" width="65.41" height="65.41" fill="#1737bb"/><polygon points="523.31,261.65 588.7199999999999,261.65 523.31,327.05999999999995" fill="#183edc"/><rect x="588.72" y="261.65" width="65.41" height="65.41" fill="#121316"/><path d="M 588.72 261.65 A 65.41 65.41 0 0 1  654.13 327.05999999999995 L 588.72 261.65 A 65.41 65.41 0 0 0 654.13 327.05999999999995" fill="#173bcf"/><rect x="654.14" y="261.65" width="65.41" height="65.41" fill="#b12a4a"/><path d="M 654.14 261.65 A 65.41 65.41 0 0 1 719.55 327.05999999999995 L 654.14 327.05999999999995" fill="#ad2948"/><rect x="719.55" y="261.65" width="65.41" height="65.41" fill="#162d90"/><polygon points="719.55,261.65 784.9599999999999,261.65 719.55,327.05999999999995" fill="#152878"/><rect x="784.96" y="261.65" width="65.41" height="65.41" fill="#5b1d2c"/><rect x="784.96" y="261.65" width="65.41" height="65.41" fill="#152772"/><rect x="850.38" y="261.65" width="65.41" height="65.41" fill="#142158"/><rect x="850.38" y="261.65" width="65.41" height="65.41" fill="#fa3463"/><rect x="0" y="327.07" width="65.41" height="65.41" fill="#142158"/><rect x="0" y="327.07" width="65.41" height="65.41" fill="#411922"/><rect x="65.41" y="327.07" width="65.41" height="65.41" fill="#1735b5"/><rect x="65.41" y="327.07" width="65.41" height="65.41" fill="#1737bb"/><rect x="130.83" y="327.07" width="65.41" height="65.41" fill="#581c2a"/><rect x="130.83" y="327.07" width="65.41" height="65.41" fill="#162d8e"/><rect x="196.24" y="327.07" width="65.41" height="65.41" fill="#33171e"/><path d="M 196.24 327.07 A 65.41 65.41 0 0 0 261.65 392.48 L 261.65 327.07" fill="#191314"/><rect x="261.65" y="327.07" width="65.41" height="65.41" fill="#3e1821"/><rect x="261.65" y="327.07" width="65.41" height="65.41" fill="#5b1d2c"/><rect x="327.07" y="327.07" width="65.41" height="65.41" fill="#391820"/><polygon points="392.48,327.07 392.48,392.48 327.07,392.48" fill="#142361"/><rect x="392.48" y="327.07" width="65.41" height="65.41" fill="#461a24"/><polygon points="392.48,327.07 457.89,327.07 457.89,392.48" fill="#271519"/><rect x="457.9" y="327.07" width="65.41" height="65.41" fill="#1737be"/><rect x="457.9" y="327.07" width="65.41" height="65.41" fill="#131c3f"/><rect x="523.31" y="327.07" width="65.41" height="65.41" fill="#e8325d"/><rect x="523.31" y="327.07" width="65.41" height="65.41" fill="#de305a"/><rect x="588.72" y="327.07" width="65.41" height="65.41" fill="#183dd8"/><path d="M 588.72 392.48 A 65.41 65.41 0 0 0 654.13 327.07 L 588.72 327.07" fill="#121318"/><rect x="654.14" y="327.07" width="65.41" height="65.41" fill="#183dd6"/><polygon points="719.55,327.07 719.55,392.48 654.14,392.48" fill="#131c40"/><rect x="719.55" y="327.07" width="65.41" height="65.41" fill="#ce2e54"/><rect x="719.55" y="327.07" width="65.41" height="65.41" fill="#ea325e"/><rect x="784.96" y="327.07" width="65.41" height="65.41" fill="#fb3464"/><path d="M 784.96 327.07 A 65.41 65.41 0 0 1  850.37 392.48 L 784.96 327.07 A 65.41 65.41 0 0 0 850.37 392.48" fill="#de3059"/><rect x="850.38" y="327.07" width="65.41" height="65.41" fill="#13172b"/><rect x="850.38" y="327.07" width="65.41" height="65.41" fill="#1633aa"/><rect x="0" y="392.48" width="65.41" height="65.41" fill="#722034"/><path d="M 0 457.89 A 65.41 65.41 0 0 0 65.41 392.48 L 0 392.48" fill="#121212"/><rect x="65.41" y="392.48" width="65.41" height="65.41" fill="#ad2948"/><rect x="65.41" y="392.48" width="65.41" height="65.41" fill="#152b87"/><rect x="130.83" y="392.48" width="65.41" height="65.41" fill="#31171d"/><path d="M 130.83 457.89 A 65.41 65.41 0 0 1  196.24 392.48 L 196.24 457.89" fill="#ac2948"/><rect x="196.24" y="392.48" width="65.41" height="65.41" fill="#161313"/><polygon points="196.24,392.48 261.65,392.48 261.65,457.89" fill="#183dd7"/><rect x="261.65" y="392.48" width="65.41" height="65.41" fill="#bf2c4f"/><path d="M 261.65 457.89 A 65.41 65.41 0 0 1  327.05999999999995 392.48 L 261.65 457.89 A 65.41 65.41 0 0 0 327.05999999999995 392.48" fill="#9c2642"/><rect x="327.07" y="392.48" width="65.41" height="65.41" fill="#e0305a"/><rect x="327.07" y="392.48" width="65.41" height="65.41" fill="#30161d"/><rect x="392.48" y="392.48" width="65.41" height="65.41" fill="#1736ba"/><polygon points="392.48,392.48 457.89,392.48 457.89,457.89" fill="#29151a"/><rect x="457.9" y="392.48" width="65.41" height="65.41" fill="#ef3360"/><path d="M 457.9 457.89 A 65.41 65.41 0 0 1  523.31 392.48 L 457.9 457.89 A 65.41 65.41 0 0 0 523.31 392.48" fill="#7b2237"/><rect x="523.31" y="392.48" width="65.41" height="65.41" fill="#38181f"/><rect x="523.31" y="392.48" width="65.41" height="65.41" fill="#13182f"/><rect x="588.72" y="392.48" width="65.41" height="65.41" fill="#1631a1"/><rect x="588.72" y="392.48" width="65.41" height="65.41" fill="#c32c50"/><rect x="654.14" y="392.48" width="65.41" height="65.41" fill="#3c1821"/><path d="M 654.14 457.89 A 65.41 65.41 0 0 1  719.55 392.48 L 719.55 457.89" fill="#a22744"/><rect x="719.55" y="392.48" width="65.41" height="65.41" fill="#142156"/><polygon points="719.55,392.48 784.9599999999999,392.48 719.55,457.89" fill="#181314"/><rect x="784.96" y="392.48" width="65.41" height="65.41" fill="#b62a4b"/><rect x="784.96" y="392.48" width="65.41" height="65.41" fill="#762135"/><rect x="850.38" y="392.48" width="65.41" height="65.41" fill="#a92847"/><path d="M 850.38 457.89 A 65.41 65.41 0 0 1  915.79 392.48 L 850.38 457.89 A 65.41 65.41 0 0 0 915.79 392.48" fill="#1632a7"/><rect x="0" y="457.9" width="65.41" height="65.41" fill="#162e93"/><polygon points="0,457.9 65.41,457.9 0,523.31" fill="#702033"/><rect x="65.41" y="457.9" width="65.41" height="65.41" fill="#1734ae"/><polygon points="65.41,457.9 130.82,457.9 65.41,523.31" fill="#b72a4c"/><rect x="130.83" y="457.9" width="65.41" height="65.41" fill="#1633aa"/><path d="M 130.83 523.31 A 65.41 65.41 0 0 1  196.24 457.9 L 130.83 523.31 A 65.41 65.41 0 0 0 196.24 457.9" fill="#e2315b"/><rect x="196.24" y="457.9" width="65.41" height="65.41" fill="#f83463"/><path d="M 196.24 457.9 A 65.41 65.41 0 0 1 261.65 523.31 L 196.24 523.31" fill="#1634ad"/><rect x="261.65" y="457.9" width="65.41" height="65.41" fill="#131931"/><rect x="261.65" y="457.9" width="65.41" height="65.41" fill="#14225c"/><rect x="327.07" y="457.9" width="65.41" height="65.41" fill="#142464"/><path d="M 327.07 457.9 A 65.41 65.41 0 0 1 392.48 523.31 L 327.07 523.31" fill="#93253f"/><rect x="392.48" y="457.9" width="65.41" height="65.41" fill="#131625"/><path d="M 392.48 457.9 A 65.41 65.41 0 0 0 457.89 523.31 L 457.89 457.9" fill="#152a82"/><rect x="457.9" y="457.9" width="65.41" height="65.41" fill="#183fe0"/><rect x="457.9" y="457.9" width="65.41" height="65.41" fill="#131b3d"/><rect x="523.31" y="457.9" width="65.41" height="65.41" fill="#131d44"/><path d="M 523.31 523.31 A 65.41 65.41 0 0 1  588.7199999999999 457.9 L 588.7199999999999 523.31" fill="#15266f"/><rect x="588.72" y="457.9" width="65.41" height="65.41" fill="#142159"/><path d="M 588.72 457.9 A 65.41 65.41 0 0 1 654.13 523.31 L 588.72 523.31" fill="#6d1f32"/><rect x="654.14" y="457.9" width="65.41" height="65.41" fill="#972641"/><polygon points="654.14,457.9 719.55,457.9 719.55,523.31" fill="#bb2b4d"/><rect x="719.55" y="457.9" width="65.41" height="65.41" fill="#aa2847"/><rect x="719.55" y="457.9" width="65.41" height="65.41" fill="#28151a"/><rect x="784.96" y="457.9" width="65.41" height="65.41" fill="#ce2e54"/><rect x="784.96" y="457.9" width="65.41" height="65.41" fill="#be2b4e"/><rect x="850.38" y="457.9" width="65.41" height="65.41" fill="#131212"/><polygon points="850.38,457.9 915.79,457.9 850.38,523.31" fill="#15266f"/></g></svg>