<svg width="37" height="35" viewBox="0 0 37 35" fill="none" xmlns="http://www.w3.org/2000/svg">
<g clip-path="url(#clip0_3_81)">
<path d="M12.1312 10.5729H3.63015C2.92521 10.5729 2.35376 10.0262 2.35376 9.35197V1.2209C2.35376 0.54667 2.92521 0 3.63015 0H12.1312C12.8361 0 13.4076 0.54667 13.4076 1.2209V9.3519C13.4076 10.0262 12.8361 10.5729 12.1312 10.5729Z" fill="#EFEFEF"/>
<path d="M18.2875 35C9.52357 34.9959 2.35368 28.0025 2.35368 19.6196V8.13101H13.4076V19.6813C13.4076 22.247 15.5375 24.3879 18.2194 24.4271C20.9492 24.467 23.1832 22.3541 23.1832 19.7516V8.13101H34.2371V19.7514C34.2372 28.1621 27.0814 35.0042 18.2875 35Z" fill="#FF7976"/>
<path d="M32.9608 10.5729H24.4597C23.7535 10.5729 23.1825 10.0243 23.1825 9.35156V1.2209C23.1825 0.546602 23.754 0 24.4589 0H32.9599C33.6648 0 34.2363 0.54667 34.2363 1.2209V9.30692C34.2369 9.32176 34.2372 9.33652 34.2372 9.35143V9.35184C34.2372 10.0262 33.6657 10.5729 32.9608 10.5729Z" fill="#C5D8DF"/>
<path d="M23.1832 8.13101V19.7514C23.1832 22.3298 20.9904 24.4261 18.2955 24.4263V35C27.0858 35 34.2372 28.1596 34.2372 19.7515V8.13108L23.1832 8.13101Z" fill="#FF5752"/>
</g>
<defs>
<clipPath id="clip0_3_81">
<rect width="36.5909" height="35" fill="white"/>
</clipPath>
</defs>
</svg>
