<svg width="342" height="342" viewBox="0 0 342 342" fill="none" xmlns="http://www.w3.org/2000/svg">
<mask id="path-1-outside-1_14_2" maskUnits="userSpaceOnUse" x="41.816" y="24" width="277" height="297" fill="black">
<rect fill="white" x="41.816" y="24" width="277" height="297"/>
<path d="M90.8001 27.3333C81.2001 30.1333 64.9334 39.3334 57.7334 46.4C41.8667 61.7334 38.1334 88.2667 49.0667 110.4C60.0001 133.067 86.5334 147.733 109.6 144C115.733 143.067 124.933 139.733 130.667 136.4C131.067 136.267 132.667 138.133 134.4 140.667C136.533 144 136.8 145.333 135.467 145.333C131.333 145.333 114.533 155.2 108.4 161.2C96.8001 172.667 93.2001 185.2 98.1334 197.067C100.533 203.067 106.933 209.867 112 212C115.067 213.333 115.733 214.533 116.4 220C117.733 231.067 125.2 242.133 133.333 244.667C134.933 245.2 136 246.667 136 248.533C136 253.333 142.4 264.8 147.733 269.467C150.4 271.867 155.867 275.333 160 277.2C166.533 280.267 168.933 280.667 182 280.667C193.6 280.667 198.8 280 206.8 277.467L217.067 274.4L227.067 281.2C232.667 284.933 237.467 288.533 238 289.333C238.4 290.133 237.6 292.4 236.133 294.533C234.533 296.667 233.333 298.933 233.333 299.6C233.333 300.8 261.2 320 263.067 320C263.733 320 263.867 318.933 263.467 317.6C263.067 315.867 264.933 314.267 272.4 310.8C285.333 304.533 298.933 290.933 305.6 277.333C308.4 271.867 310.933 265.733 311.467 263.733L312.267 260H287.467C273.867 260 262.667 259.6 262.667 259.067C262.667 258.4 287.333 216.133 291.467 209.6C291.6 209.333 297.067 212.133 303.733 215.867C316.267 223.067 317.333 223.467 317.333 221.467C317.333 220.667 311.467 216.8 304.4 212.8L291.333 205.333L288.4 208.8L285.6 212.4L279.2 208.533L272.933 204.533L273.2 194C274.267 152.8 257.467 117.333 231.067 105.067C223.333 101.333 220.267 100.667 209.333 100.267C199.2 99.8667 195.2 100.4 189.067 102.533C172.8 108.133 160 119.733 151.867 135.6C148.133 142.933 147.067 144 143.867 144C141.333 144 139.333 142.8 137.467 140.133C135.867 138 134.667 135.733 134.667 135.067C134.8 134.533 137.867 131.867 141.6 129.333C171.067 109.467 169.733 61.8667 139.067 38.4C124.4 27.3334 106 23.0667 90.8001 27.3333ZM120.4 31.6C128.8 34.2667 141.067 42.5333 146.4 49.2C156.4 61.6 160.667 74.8 159.733 90.5334C159.067 102.133 155.2 111.6 147.867 120C143.467 125.067 143.467 124.8 148.667 112.267C155.2 96.5334 152.8 75.7333 142.533 59.7333C137.733 52.4 126.933 42.2667 120.133 38.6667C112.533 34.9334 101.467 32 94.2667 32C86.1334 32 86.8001 30.8 95.6001 29.4667C103.6 28.2667 112.133 28.9333 120.4 31.6ZM112 38.5334C126.533 44 139.6 57.2 145.6 72C148 77.8667 148.533 82.1334 148.667 92.6667C148.667 105.067 148.4 106.667 144.267 114.933C138.533 126.8 131.867 132.667 121.867 134.667C93.8667 140.533 62.8001 117.733 57.2001 87.3334C54.5334 72.5334 58.5334 55.8667 67.4667 45.6C72.5334 39.6 75.7334 37.4667 82.0001 35.8667C88.4001 34.1333 104.133 35.6 112 38.5334ZM60.0001 50.9334C55.3334 59.0667 52.9334 70.4 53.6001 81.2C55.6001 111.333 78.2667 134.667 109.067 138.4L118 139.467L111.467 140.667C81.8667 145.6 53.0667 124.933 46.6667 94C43.6001 79.3333 47.4667 63.2 56.9334 51.3333C61.6001 45.4667 63.3334 45.2 60.0001 50.9334ZM221.067 104.533C243.867 110.667 260.533 131.6 266.8 162C269.2 173.2 269.467 178.533 268.933 195.333C268.533 206.267 267.867 216.8 267.2 218.533C266.533 220.933 266.667 221.6 268.133 221.067C269.2 220.667 270.667 217.733 271.333 214.4L272.667 208.4L276.667 210.933C278.933 212.267 281.467 213.867 282.4 214.533C283.733 215.333 279.067 223.867 263.867 248.8C252.8 267.067 242.933 283.067 242.133 284.267C240.667 286.267 239.6 285.867 230.933 279.867C222.267 273.733 220 270.667 224.4 270.667C226.533 270.533 232.8 265.733 231.867 264.8C231.467 264.4 226.4 266.133 220.533 268.667C205.467 275.2 195.6 277.467 182.533 277.467C164.267 277.467 152.4 272.133 144.133 260C136 248 137.733 233.333 148.667 222.133C155.333 215.333 162.133 211.467 172.933 208.667C181.867 206.267 192.8 206 194.133 208.133C194.533 208.933 195.333 214.267 195.867 219.867C196.667 229.6 196.8 230 200.267 230.4C205.067 230.933 208.933 228.8 212 223.6L214.667 219.333V224.4C214.667 238.8 199.6 250.667 178.533 252.933C171.067 253.733 168.533 255.333 172.533 256.8C175.6 258 189.2 254.933 197.2 251.333C210.533 245.2 217.6 236.267 217.733 225.333C217.867 214.533 209.2 206.4 195.6 204.533L189.867 203.733L190.667 198.8C191.067 196.133 191.067 191.6 190.533 188.8C189.733 184.133 190.133 182.933 193.733 178.533L197.867 173.6L200.133 180.533C203.6 192.133 214.133 205.333 219.867 205.333C221.067 205.333 219.333 202.667 215.067 198.267C202.8 185.867 199.2 173.467 204 159.733C205.6 155.067 207.2 146.533 207.6 140.267C208.267 130.8 208.133 129.333 206.133 129.333C204.4 129.333 204 130.933 204 139.333C204 155.333 196.533 173.467 186.533 182C178.667 188.533 166.4 189.333 159.2 183.733L155.867 180.933L161.067 178.667C166.933 176 171.2 171.2 173.333 164.533C175.733 157.467 174.667 156.4 163.733 155.333C149.467 154 148.933 153.867 149.867 149.067C152.4 136.533 165.2 118.933 177.6 111.2C190.133 103.2 206.667 100.8 221.067 104.533ZM145.6 158C145.333 163.467 145.6 169.6 146.4 171.6C147.6 175.2 147.333 175.467 139.6 180C135.2 182.533 129.733 187.067 127.333 190C122.4 196 117.333 205.467 117.333 208.667C117.333 211.6 115.733 211.2 109.467 206.533C100 199.733 96.2667 187.067 100.533 176.667C106.133 163.2 127.6 148.267 141.333 148H146L145.6 158ZM167.467 158.667C169.867 158.667 170.667 159.467 170.667 161.6C170.667 168.533 161.867 177.333 154.933 177.333C151.733 177.333 148 168.933 148 161.733V156.933L156.133 157.867C160.667 158.267 165.867 158.667 167.467 158.667ZM152.267 182C158.4 189.733 173.2 193.2 181.867 188.667C186.667 186.133 188 187.067 188 193.067C188 202.8 187.2 203.6 178.267 204.533C168.4 205.467 155.733 211.2 148.267 218C142.8 222.933 136 234.533 136 238.933C136 245.067 127.067 238.933 122.667 229.867C116.533 217.333 120.267 201.2 132 189.733C136.667 185.2 146.8 178.667 149.2 178.667C149.467 178.667 150.8 180.133 152.267 182ZM208.267 212.933C212.8 217.067 209.867 225.333 203.2 227.2C199.733 228.267 198.667 225.467 198.667 215.067V208L202.267 209.467C204.4 210.267 207.067 211.867 208.267 212.933Z"/>
</mask>
<path d="M90.8001 27.3333C81.2001 30.1333 64.9334 39.3334 57.7334 46.4C41.8667 61.7334 38.1334 88.2667 49.0667 110.4C60.0001 133.067 86.5334 147.733 109.6 144C115.733 143.067 124.933 139.733 130.667 136.4C131.067 136.267 132.667 138.133 134.4 140.667C136.533 144 136.8 145.333 135.467 145.333C131.333 145.333 114.533 155.2 108.4 161.2C96.8001 172.667 93.2001 185.2 98.1334 197.067C100.533 203.067 106.933 209.867 112 212C115.067 213.333 115.733 214.533 116.4 220C117.733 231.067 125.2 242.133 133.333 244.667C134.933 245.2 136 246.667 136 248.533C136 253.333 142.4 264.8 147.733 269.467C150.4 271.867 155.867 275.333 160 277.2C166.533 280.267 168.933 280.667 182 280.667C193.6 280.667 198.8 280 206.8 277.467L217.067 274.4L227.067 281.2C232.667 284.933 237.467 288.533 238 289.333C238.4 290.133 237.6 292.4 236.133 294.533C234.533 296.667 233.333 298.933 233.333 299.6C233.333 300.8 261.2 320 263.067 320C263.733 320 263.867 318.933 263.467 317.6C263.067 315.867 264.933 314.267 272.4 310.8C285.333 304.533 298.933 290.933 305.6 277.333C308.4 271.867 310.933 265.733 311.467 263.733L312.267 260H287.467C273.867 260 262.667 259.6 262.667 259.067C262.667 258.4 287.333 216.133 291.467 209.6C291.6 209.333 297.067 212.133 303.733 215.867C316.267 223.067 317.333 223.467 317.333 221.467C317.333 220.667 311.467 216.8 304.4 212.8L291.333 205.333L288.4 208.8L285.6 212.4L279.2 208.533L272.933 204.533L273.2 194C274.267 152.8 257.467 117.333 231.067 105.067C223.333 101.333 220.267 100.667 209.333 100.267C199.2 99.8667 195.2 100.4 189.067 102.533C172.8 108.133 160 119.733 151.867 135.6C148.133 142.933 147.067 144 143.867 144C141.333 144 139.333 142.8 137.467 140.133C135.867 138 134.667 135.733 134.667 135.067C134.8 134.533 137.867 131.867 141.6 129.333C171.067 109.467 169.733 61.8667 139.067 38.4C124.4 27.3334 106 23.0667 90.8001 27.3333ZM120.4 31.6C128.8 34.2667 141.067 42.5333 146.4 49.2C156.4 61.6 160.667 74.8 159.733 90.5334C159.067 102.133 155.2 111.6 147.867 120C143.467 125.067 143.467 124.8 148.667 112.267C155.2 96.5334 152.8 75.7333 142.533 59.7333C137.733 52.4 126.933 42.2667 120.133 38.6667C112.533 34.9334 101.467 32 94.2667 32C86.1334 32 86.8001 30.8 95.6001 29.4667C103.6 28.2667 112.133 28.9333 120.4 31.6ZM112 38.5334C126.533 44 139.6 57.2 145.6 72C148 77.8667 148.533 82.1334 148.667 92.6667C148.667 105.067 148.4 106.667 144.267 114.933C138.533 126.8 131.867 132.667 121.867 134.667C93.8667 140.533 62.8001 117.733 57.2001 87.3334C54.5334 72.5334 58.5334 55.8667 67.4667 45.6C72.5334 39.6 75.7334 37.4667 82.0001 35.8667C88.4001 34.1333 104.133 35.6 112 38.5334ZM60.0001 50.9334C55.3334 59.0667 52.9334 70.4 53.6001 81.2C55.6001 111.333 78.2667 134.667 109.067 138.4L118 139.467L111.467 140.667C81.8667 145.6 53.0667 124.933 46.6667 94C43.6001 79.3333 47.4667 63.2 56.9334 51.3333C61.6001 45.4667 63.3334 45.2 60.0001 50.9334ZM221.067 104.533C243.867 110.667 260.533 131.6 266.8 162C269.2 173.2 269.467 178.533 268.933 195.333C268.533 206.267 267.867 216.8 267.2 218.533C266.533 220.933 266.667 221.6 268.133 221.067C269.2 220.667 270.667 217.733 271.333 214.4L272.667 208.4L276.667 210.933C278.933 212.267 281.467 213.867 282.4 214.533C283.733 215.333 279.067 223.867 263.867 248.8C252.8 267.067 242.933 283.067 242.133 284.267C240.667 286.267 239.6 285.867 230.933 279.867C222.267 273.733 220 270.667 224.4 270.667C226.533 270.533 232.8 265.733 231.867 264.8C231.467 264.4 226.4 266.133 220.533 268.667C205.467 275.2 195.6 277.467 182.533 277.467C164.267 277.467 152.4 272.133 144.133 260C136 248 137.733 233.333 148.667 222.133C155.333 215.333 162.133 211.467 172.933 208.667C181.867 206.267 192.8 206 194.133 208.133C194.533 208.933 195.333 214.267 195.867 219.867C196.667 229.6 196.8 230 200.267 230.4C205.067 230.933 208.933 228.8 212 223.6L214.667 219.333V224.4C214.667 238.8 199.6 250.667 178.533 252.933C171.067 253.733 168.533 255.333 172.533 256.8C175.6 258 189.2 254.933 197.2 251.333C210.533 245.2 217.6 236.267 217.733 225.333C217.867 214.533 209.2 206.4 195.6 204.533L189.867 203.733L190.667 198.8C191.067 196.133 191.067 191.6 190.533 188.8C189.733 184.133 190.133 182.933 193.733 178.533L197.867 173.6L200.133 180.533C203.6 192.133 214.133 205.333 219.867 205.333C221.067 205.333 219.333 202.667 215.067 198.267C202.8 185.867 199.2 173.467 204 159.733C205.6 155.067 207.2 146.533 207.6 140.267C208.267 130.8 208.133 129.333 206.133 129.333C204.4 129.333 204 130.933 204 139.333C204 155.333 196.533 173.467 186.533 182C178.667 188.533 166.4 189.333 159.2 183.733L155.867 180.933L161.067 178.667C166.933 176 171.2 171.2 173.333 164.533C175.733 157.467 174.667 156.4 163.733 155.333C149.467 154 148.933 153.867 149.867 149.067C152.4 136.533 165.2 118.933 177.6 111.2C190.133 103.2 206.667 100.8 221.067 104.533ZM145.6 158C145.333 163.467 145.6 169.6 146.4 171.6C147.6 175.2 147.333 175.467 139.6 180C135.2 182.533 129.733 187.067 127.333 190C122.4 196 117.333 205.467 117.333 208.667C117.333 211.6 115.733 211.2 109.467 206.533C100 199.733 96.2667 187.067 100.533 176.667C106.133 163.2 127.6 148.267 141.333 148H146L145.6 158ZM167.467 158.667C169.867 158.667 170.667 159.467 170.667 161.6C170.667 168.533 161.867 177.333 154.933 177.333C151.733 177.333 148 168.933 148 161.733V156.933L156.133 157.867C160.667 158.267 165.867 158.667 167.467 158.667ZM152.267 182C158.4 189.733 173.2 193.2 181.867 188.667C186.667 186.133 188 187.067 188 193.067C188 202.8 187.2 203.6 178.267 204.533C168.4 205.467 155.733 211.2 148.267 218C142.8 222.933 136 234.533 136 238.933C136 245.067 127.067 238.933 122.667 229.867C116.533 217.333 120.267 201.2 132 189.733C136.667 185.2 146.8 178.667 149.2 178.667C149.467 178.667 150.8 180.133 152.267 182ZM208.267 212.933C212.8 217.067 209.867 225.333 203.2 227.2C199.733 228.267 198.667 225.467 198.667 215.067V208L202.267 209.467C204.4 210.267 207.067 211.867 208.267 212.933Z" fill="white"/>
<path d="M90.8001 27.3333C81.2001 30.1333 64.9334 39.3334 57.7334 46.4C41.8667 61.7334 38.1334 88.2667 49.0667 110.4C60.0001 133.067 86.5334 147.733 109.6 144C115.733 143.067 124.933 139.733 130.667 136.4C131.067 136.267 132.667 138.133 134.4 140.667C136.533 144 136.8 145.333 135.467 145.333C131.333 145.333 114.533 155.2 108.4 161.2C96.8001 172.667 93.2001 185.2 98.1334 197.067C100.533 203.067 106.933 209.867 112 212C115.067 213.333 115.733 214.533 116.4 220C117.733 231.067 125.2 242.133 133.333 244.667C134.933 245.2 136 246.667 136 248.533C136 253.333 142.4 264.8 147.733 269.467C150.4 271.867 155.867 275.333 160 277.2C166.533 280.267 168.933 280.667 182 280.667C193.6 280.667 198.8 280 206.8 277.467L217.067 274.4L227.067 281.2C232.667 284.933 237.467 288.533 238 289.333C238.4 290.133 237.6 292.4 236.133 294.533C234.533 296.667 233.333 298.933 233.333 299.6C233.333 300.8 261.2 320 263.067 320C263.733 320 263.867 318.933 263.467 317.6C263.067 315.867 264.933 314.267 272.4 310.8C285.333 304.533 298.933 290.933 305.6 277.333C308.4 271.867 310.933 265.733 311.467 263.733L312.267 260H287.467C273.867 260 262.667 259.6 262.667 259.067C262.667 258.4 287.333 216.133 291.467 209.6C291.6 209.333 297.067 212.133 303.733 215.867C316.267 223.067 317.333 223.467 317.333 221.467C317.333 220.667 311.467 216.8 304.4 212.8L291.333 205.333L288.4 208.8L285.6 212.4L279.2 208.533L272.933 204.533L273.2 194C274.267 152.8 257.467 117.333 231.067 105.067C223.333 101.333 220.267 100.667 209.333 100.267C199.2 99.8667 195.2 100.4 189.067 102.533C172.8 108.133 160 119.733 151.867 135.6C148.133 142.933 147.067 144 143.867 144C141.333 144 139.333 142.8 137.467 140.133C135.867 138 134.667 135.733 134.667 135.067C134.8 134.533 137.867 131.867 141.6 129.333C171.067 109.467 169.733 61.8667 139.067 38.4C124.4 27.3334 106 23.0667 90.8001 27.3333ZM120.4 31.6C128.8 34.2667 141.067 42.5333 146.4 49.2C156.4 61.6 160.667 74.8 159.733 90.5334C159.067 102.133 155.2 111.6 147.867 120C143.467 125.067 143.467 124.8 148.667 112.267C155.2 96.5334 152.8 75.7333 142.533 59.7333C137.733 52.4 126.933 42.2667 120.133 38.6667C112.533 34.9334 101.467 32 94.2667 32C86.1334 32 86.8001 30.8 95.6001 29.4667C103.6 28.2667 112.133 28.9333 120.4 31.6ZM112 38.5334C126.533 44 139.6 57.2 145.6 72C148 77.8667 148.533 82.1334 148.667 92.6667C148.667 105.067 148.4 106.667 144.267 114.933C138.533 126.8 131.867 132.667 121.867 134.667C93.8667 140.533 62.8001 117.733 57.2001 87.3334C54.5334 72.5334 58.5334 55.8667 67.4667 45.6C72.5334 39.6 75.7334 37.4667 82.0001 35.8667C88.4001 34.1333 104.133 35.6 112 38.5334ZM60.0001 50.9334C55.3334 59.0667 52.9334 70.4 53.6001 81.2C55.6001 111.333 78.2667 134.667 109.067 138.4L118 139.467L111.467 140.667C81.8667 145.6 53.0667 124.933 46.6667 94C43.6001 79.3333 47.4667 63.2 56.9334 51.3333C61.6001 45.4667 63.3334 45.2 60.0001 50.9334ZM221.067 104.533C243.867 110.667 260.533 131.6 266.8 162C269.2 173.2 269.467 178.533 268.933 195.333C268.533 206.267 267.867 216.8 267.2 218.533C266.533 220.933 266.667 221.6 268.133 221.067C269.2 220.667 270.667 217.733 271.333 214.4L272.667 208.4L276.667 210.933C278.933 212.267 281.467 213.867 282.4 214.533C283.733 215.333 279.067 223.867 263.867 248.8C252.8 267.067 242.933 283.067 242.133 284.267C240.667 286.267 239.6 285.867 230.933 279.867C222.267 273.733 220 270.667 224.4 270.667C226.533 270.533 232.8 265.733 231.867 264.8C231.467 264.4 226.4 266.133 220.533 268.667C205.467 275.2 195.6 277.467 182.533 277.467C164.267 277.467 152.4 272.133 144.133 260C136 248 137.733 233.333 148.667 222.133C155.333 215.333 162.133 211.467 172.933 208.667C181.867 206.267 192.8 206 194.133 208.133C194.533 208.933 195.333 214.267 195.867 219.867C196.667 229.6 196.8 230 200.267 230.4C205.067 230.933 208.933 228.8 212 223.6L214.667 219.333V224.4C214.667 238.8 199.6 250.667 178.533 252.933C171.067 253.733 168.533 255.333 172.533 256.8C175.6 258 189.2 254.933 197.2 251.333C210.533 245.2 217.6 236.267 217.733 225.333C217.867 214.533 209.2 206.4 195.6 204.533L189.867 203.733L190.667 198.8C191.067 196.133 191.067 191.6 190.533 188.8C189.733 184.133 190.133 182.933 193.733 178.533L197.867 173.6L200.133 180.533C203.6 192.133 214.133 205.333 219.867 205.333C221.067 205.333 219.333 202.667 215.067 198.267C202.8 185.867 199.2 173.467 204 159.733C205.6 155.067 207.2 146.533 207.6 140.267C208.267 130.8 208.133 129.333 206.133 129.333C204.4 129.333 204 130.933 204 139.333C204 155.333 196.533 173.467 186.533 182C178.667 188.533 166.4 189.333 159.2 183.733L155.867 180.933L161.067 178.667C166.933 176 171.2 171.2 173.333 164.533C175.733 157.467 174.667 156.4 163.733 155.333C149.467 154 148.933 153.867 149.867 149.067C152.4 136.533 165.2 118.933 177.6 111.2C190.133 103.2 206.667 100.8 221.067 104.533ZM145.6 158C145.333 163.467 145.6 169.6 146.4 171.6C147.6 175.2 147.333 175.467 139.6 180C135.2 182.533 129.733 187.067 127.333 190C122.4 196 117.333 205.467 117.333 208.667C117.333 211.6 115.733 211.2 109.467 206.533C100 199.733 96.2667 187.067 100.533 176.667C106.133 163.2 127.6 148.267 141.333 148H146L145.6 158ZM167.467 158.667C169.867 158.667 170.667 159.467 170.667 161.6C170.667 168.533 161.867 177.333 154.933 177.333C151.733 177.333 148 168.933 148 161.733V156.933L156.133 157.867C160.667 158.267 165.867 158.667 167.467 158.667ZM152.267 182C158.4 189.733 173.2 193.2 181.867 188.667C186.667 186.133 188 187.067 188 193.067C188 202.8 187.2 203.6 178.267 204.533C168.4 205.467 155.733 211.2 148.267 218C142.8 222.933 136 234.533 136 238.933C136 245.067 127.067 238.933 122.667 229.867C116.533 217.333 120.267 201.2 132 189.733C136.667 185.2 146.8 178.667 149.2 178.667C149.467 178.667 150.8 180.133 152.267 182ZM208.267 212.933C212.8 217.067 209.867 225.333 203.2 227.2C199.733 228.267 198.667 225.467 198.667 215.067V208L202.267 209.467C204.4 210.267 207.067 211.867 208.267 212.933Z" stroke="white" stroke-width="2" mask="url(#path-1-outside-1_14_2)"/>
<path d="M182.267 40.4C173.6 48.4 171.867 50.6666 174.667 50.6666C176.267 50.6666 193.333 34.6666 193.333 33.2C193.333 30.8 191.2 32.2666 182.267 40.4Z" fill="white"/>
<path d="M192.133 57.3333C182 61.3333 177.733 64 181.467 64C184 64 204.267 56.1333 206 54.5333C208.4 52.1333 202 53.4667 192.133 57.3333Z" fill="white"/>
<path d="M182.667 80C182.667 80.8 187.333 81.3334 194.133 81.3334C201.333 81.3334 205.2 80.8 204.667 80C204.267 79.2 199.067 78.6667 193.2 78.6667C187.067 78.6667 182.667 79.2 182.667 80Z" fill="white"/>
<path d="M36.4 140.133C29.0667 144.933 26.1334 148 28.8 148C30.4 148 44.9334 138.667 46.6667 136.667C49.8667 132.8 44.9334 134.533 36.4 140.133Z" fill="white"/>
<path d="M49.3334 157.467C42.0001 167.6 40.2667 170.667 42.2667 170.667C43.4667 170.667 58.6667 150.4 58.6667 148.8C58.6667 146.133 55.3334 149.2 49.3334 157.467Z" fill="white"/>
<path d="M68.6667 157.6C67.0667 162.4 64 176.133 64 178.667C64 184.4 66.4 179.733 68.6667 169.733C70 164 71.3333 158.667 71.6 157.733C72 156.8 71.6 156 70.8 156C69.8667 156 68.9333 156.8 68.6667 157.6Z" fill="white"/>
<path d="M61.3334 211.6C61.3334 212.4 65.3334 214.267 70.4 215.867C81.7334 219.6 91.2 225.733 95.4667 231.867C99.6 238.133 99.6 240 94.9334 240C90.2667 240 86.6667 243.6 86.6667 248.133C86.6667 252.4 88.9334 254.667 93.3334 254.667C98 254.667 101.2 252.133 102.4 247.733L103.333 244L107.733 246.667C112 249.333 117.2 258.133 117.333 263.067C117.333 264.933 116.533 265.2 112.133 264.533C104.933 263.333 101.333 265.6 101.333 271.333C101.333 279.067 109.467 281.333 115.6 275.2L118.933 271.867L122.133 274.8C123.867 276.4 125.6 278.8 126.133 280.267C126.533 281.6 127.467 282.667 128.133 282.667C130.533 282.667 129.2 278.667 124.667 272.8C121.733 268.933 120 265.2 120 262.667C120 254.933 112.667 244.533 105.6 242C104.4 241.6 101.867 238.133 100 234.267C97.7334 229.6 94.5334 225.733 90 222.267C80.9334 215.6 61.3334 208.267 61.3334 211.6ZM100 245.067C100 248.8 95.3334 252.4 92.1334 251.333C88.6667 250.267 88.5334 246 91.7334 244.133C95.6 241.867 100 242.4 100 245.067ZM113.333 268C116.533 269.733 115.6 272.533 111.333 274.4C107.333 276.267 104 275.2 104 272.133C104 267.333 108.533 265.467 113.333 268Z" fill="white"/>
</svg>
