<svg width="34" height="34" viewBox="0 0 34 34" fill="none" xmlns="http://www.w3.org/2000/svg">
<path d="M32.2112 30.5587L32.2137 30.5612C32.3226 30.6685 32.409 30.7965 32.468 30.9375C32.527 31.0785 32.5574 31.2299 32.5574 31.3828C32.5574 31.5356 32.527 31.687 32.468 31.828C32.409 31.9691 32.3226 32.097 32.2137 32.2043L32.2108 32.2073C32.1036 32.3147 31.9762 32.4 31.8359 32.4582C31.6957 32.5164 31.5453 32.5463 31.3935 32.5463C31.2416 32.5463 31.0913 32.5164 30.9511 32.4582C30.8108 32.4 30.6834 32.3147 30.5762 32.2073L30.5756 32.2066L24.5738 26.2126L24.2577 25.897L23.9085 26.1756C21.2304 28.3131 17.8781 29.4268 14.453 29.317C11.0278 29.2071 7.75386 27.8809 5.21823 25.5761C2.68261 23.2713 1.05117 20.1388 0.616478 16.7404C0.181784 13.3419 0.97226 9.89976 2.84616 7.03123C4.72007 4.16269 7.55483 2.0554 10.8421 1.0873C14.1293 0.119203 17.654 0.353629 20.7841 1.74854C23.9141 3.14344 26.4447 5.60756 27.922 8.69899C29.3993 11.7903 29.7268 15.3068 28.8458 18.6176C28.7668 18.9141 28.5732 19.1671 28.3076 19.3209C28.0419 19.4747 27.7261 19.5167 27.4295 19.4376C27.2826 19.3985 27.1449 19.3308 27.0242 19.2385C26.9036 19.1461 26.8022 19.0309 26.7261 18.8995C26.6499 18.768 26.6004 18.6228 26.5804 18.4722C26.5604 18.3216 26.5702 18.1686 26.6093 18.0218L26.6096 18.0208C27.1044 16.1491 27.147 14.1865 26.7338 12.2951L26.7335 12.2938C26.1566 9.68542 24.7305 7.34204 22.6788 5.63081C20.627 3.91957 18.0655 2.93716 15.3955 2.83745C12.7254 2.73774 10.0977 3.52636 7.92401 5.07979C5.7503 6.63323 4.15337 8.86371 3.38344 11.4218C2.6135 13.9799 2.71406 16.7211 3.66936 19.216C4.62465 21.7108 6.38071 23.8184 8.6624 25.2084C10.9441 26.5985 13.6225 27.1925 16.2781 26.8975C18.9336 26.6026 21.4163 25.4352 23.3372 23.5783L23.3372 23.5783L23.3425 23.573C23.5923 23.3242 23.9306 23.1845 24.2833 23.1845C24.636 23.1845 24.9743 23.3242 25.2241 23.573L32.2112 30.5587Z" fill="white" stroke="black"/>
</svg>
